The.Pillars.Of.The.Earth.Pt.IV.720p.HDTV.X264-DIMENSION
Aired 06.08.2010

"Battlefield"

William wants his father s title of Earl, but finds a
mysterious knight is a rival for the title. King
Stephen orders an assassin to kill Jack. Waleran tells
Maud the man who betrayed Earl Bartholomew is Philip

Enjoy!

General
Complete name                    : C:\Users\insinuendo\Documents\TV\The Pillars Of The Earth\The.Pillars.of.the.Earth.Pt.IV.720p.HDTV.X264-DIMENSION.mkv
Format                           : Matroska
File size                        : 1.09 GiB
Duration                         : 47mn 48s
Overall bit rate                 : 3 269 Kbps
Encoded date                     : UTC 2010-08-07 10:18:40
Writing application              : mkvmerge v4.1.1 ('Bouncin' Back') built on Jul  3 2010 22:54:08
Writing library                  : libebml v1.0.0 + libmatroska v1.0.0

Video
ID                               : 1
Format                           : AVC
Format/Info                      : Advanced Video Codec
Format profile                   : High@L3.1
Format settings, CABAC           : Yes
Format settings, ReFrames        : 5 frames
Muxing mode                      : Container profile=Unknown@3.1
Codec ID                         : V_MPEG4/ISO/AVC
Duration                         : 47mn 45s
Bit rate                         : 2 820 Kbps
Nominal bit rate                 : 2 884 Kbps
Width                            : 1 280 pixels
Height                           : 720 pixels
Display aspect ratio             : 16:9
Frame rate                       : 23.976 fps
Resolution                       : 24 bits
Colorimetry                      : 4:2:0
Scan type                        : Progressive
Bits/(Pixel*Frame)               : 0.128
Stream size                      : 963 MiB (86%)
Writing library                  : x264 core 104 r1677 19df41a


Audio
ID                               : 2
Format                           : AC-3
Format/Info                      : Audio Coding 3
Codec ID                         : A_AC3
Duration                         : 47mn 48s
Bit rate mode                    : Constant
Bit rate                         : 384 Kbps
Channel(s)                       : 6 channels
Channel positions                : Front: L C R, Surround: L R, LFE
Sampling rate                    : 48.0 KHz
Stream size                      : 131 MiB (12%)

